
<svg xmlns="http://www.w3.org/2000/svg" version="1.1" id="svg10" width="657.59998" height="151.5" viewBox="0 0 657.59998 151.5">
  
  <defs id="defs24"></defs>
  
  <g id="g18">
    <path style="fill:#f7a7bb;fill-opacity:1" d="m 41.618892,151.43034 -41.24999822,0.095 V 75.630104 0.44709021 L 42.618892,0.39120071 83.800534,0.33531122 91.716059,3.9343607 c 12.669911,5.7607824 18.309681,12.3842263 22.741381,25.5021003 1.73375,5.131933 2.03827,7.960623 1.69607,15.754963 -0.46513,10.59413 -2.70904,17.12763 -8.47819,24.68563 l -3.28023,4.29734 4.34645,4.00642 c 7.50839,6.92099 13.65266,21.123054 13.60289,31.442116 -0.0993,20.5815 -16.33783,39.35835 -35.150816,41.74146 -2.96619,0.37574 -22.887222,0.20955 -45.574722,0.066 z m 32.945011,-34.17055 c 7.68824,-7.10131 7.301989,-20.018742 -1.194501,-25.818366 -3.07665,-2.10008 -4.3525,-2.25 -19.14839,-2.25 h -15.85212 v 15.065856 15.06585 l 16.92225,-0.31585 c 16.4543,-0.30712 16.640981,0.68338 19.272761,-1.74749 z M 70.952002,59.584964 c 4.04761,-1.92072 7.10621,-6.52639 7.92909,-11.93972 0.79644,-5.23931 -2.67231,-12.133651 -7.5122,-14.930937 -3.07385,-1.776579 -5.26548,-2.022878 -18,-2.022878 H 38.512773 l 0.08007,15.249995 -0.27604,15.25 h 14.62491 c 11.35913,0 15.38089,-0.35873 18.01029,-1.60646 z m 225.415848,16.35646 0.001,-75.74999325 h 20 20 V 75.651274 151.11113 l -20.00103,0.29015 -20.00103,0.29015 0.001,-75.750006 z m 289.17873,50.342486 -20.6777,-25.40753 -0.26717,25.15753 -0.26717,25.15752 H 543.85171 523.36888 V 75.691424 0.19143075 h 20.5 20.5 V 25.191429 c 0,13.749995 0.3375,24.970805 0.75,24.935125 0.4125,-0.0357 9.75,-11.25966 20.75,-24.942181 l 20,-24.87731225 25.85359,-0.0578 25.85359,-0.0578 -2.85359,3.25538995 C 633.1333,28.075899 596.8035,70.646554 596.58599,71.570224 c -0.15559,0.66071 12.95089,18.8307 29.1255,40.377766 l 29.40838,39.17646 -24.44779,0.28351 -24.44779,0.2835 z M 151.36888,75.691424 V 0.19143075 h 21 21 V 57.191424 114.19143 h 40 40 v 18.5 18.5 h -61 -61 z m 212,0 V 0.19143075 h 20 20 l 0.0181,40.74999325 0.0181,40.75 12.04935,-18.5 c 6.62714,-10.175 18.45595,-28.399995 26.28624,-40.499995 l 14.81374,-22.43262563 19.3304,0.0177083 20.48407,-0.12649088 V 75.670714 151.19143 h -19.98866 -19.98865 l -0.26135,-40.04315 -0.26134,-40.043156 -25.9974,40.043156 -25.9974,40.04315 h -20.2526 -20.2526 z" id="path22"></path>
  </g>
</svg>
